<svg width="192" height="52" viewBox="0 0 192 52" fill="none" xmlns="http://www.w3.org/2000/svg">
<path fill-rule="evenodd" clip-rule="evenodd" d="M49.5468 42.293H40.1793V4.56055H49.5468V23.6943H53.8254L59.7243 13.707H69.6487L61.6231 27.465L69.6487 42.293H59.7243L53.5722 30.9809H49.5468V42.293Z" fill="white"/>
<path fill-rule="evenodd" clip-rule="evenodd" d="M98.5849 34.2167C98.5849 36.9173 97.8254 39.032 96.3063 40.5606C94.7873 42.0893 92.6859 42.8536 90.0023 42.8536H77.6727C74.9891 42.8536 72.8878 42.0893 71.3687 40.5606C69.8497 39.032 69.0901 36.9173 69.0901 34.2167V21.8091C69.0901 19.1084 69.8497 16.9938 71.3687 15.4651C72.8878 13.9364 74.9891 13.1721 77.6727 13.1721H90.0023C92.6859 13.1721 94.7873 13.9364 96.3063 15.4651C97.8254 16.9938 98.5849 19.1084 98.5849 21.8091V34.2167ZM89.1919 22.6243C89.1919 21.1976 88.483 20.4587 87.0399 20.4587H80.6093C79.1915 20.4587 78.4573 21.1721 78.4573 22.6243V33.4014C78.4573 34.8282 79.1662 35.567 80.6093 35.567H87.0399C88.4577 35.567 89.1919 34.8536 89.1919 33.4014V22.6243Z" fill="white"/>
<path fill-rule="evenodd" clip-rule="evenodd" d="M117.068 20.9937C115.169 20.9937 113.043 21.3504 110.638 22.0637V42.293H101.27V13.7325H109.574L110.106 16.4332C111.777 15.3122 113.498 14.4969 115.271 13.9873C117.043 13.4778 118.537 13.1975 119.752 13.1975H122.157C124.588 13.1975 126.537 13.9364 128.005 15.4141C129.474 16.8918 130.208 18.8536 130.208 21.2994V42.3185H120.841V22.9045C120.841 22.3695 120.663 21.9109 120.309 21.5542C119.954 21.1975 119.499 21.0192 118.967 21.0192H117.068V20.9937Z" fill="white"/>
<path fill-rule="evenodd" clip-rule="evenodd" d="M151.348 40.1529C147.879 40.8662 144.841 41.2229 142.233 41.2229H140.36C137.929 41.2229 135.98 40.4841 134.512 39.0064C133.043 37.5287 132.309 35.5669 132.309 33.121V22.344C132.309 19.6433 133.068 17.5287 134.587 16C136.107 14.4714 138.208 13.707 140.891 13.707H160.715V43.8981C160.715 46.344 159.981 48.3057 158.512 49.7834C157.044 51.2611 155.095 52 152.664 52C147.044 52 140.816 51.6433 133.904 50.9299V43.9236C140.714 44.4586 145.904 44.7389 149.449 44.7389C149.98 44.7389 150.436 44.5605 150.791 44.2038C151.145 43.8471 151.322 43.3885 151.322 42.8535V40.1529H151.348ZM144.917 33.9362C147.17 33.9362 149.322 33.7579 151.347 33.4012V20.9936H143.854C142.436 20.9936 141.702 21.7069 141.702 23.1592V32.0509C141.702 32.5859 141.879 33.0445 142.233 33.4012C142.588 33.7579 143.043 33.9362 143.575 33.9362H144.917Z" fill="white"/>
<path fill-rule="evenodd" clip-rule="evenodd" d="M165.298 14.2676C171.83 13.5542 177.729 13.1975 182.97 13.1975C185.4 13.1975 187.35 13.9364 188.818 15.4141C190.286 16.8918 191.021 18.8536 191.021 21.2994V42.3185H182.716L182.185 39.6179C180.514 40.7389 178.792 41.5542 177.02 42.0637C175.248 42.5733 173.754 42.8535 172.539 42.8535H170.665C168.235 42.8535 166.285 42.1147 164.817 40.637C163.349 39.1593 162.614 37.1975 162.614 34.7516V32.3313C162.614 29.8854 163.349 27.9236 164.817 26.4459C166.285 24.9682 168.235 24.2293 170.665 24.2293H181.653V22.0637C181.653 21.5287 181.476 21.0701 181.121 20.7134C180.767 20.3567 180.311 20.1784 179.78 20.1784C177.45 20.1784 174.893 20.2803 172.083 20.5096C169.273 20.7134 167.02 20.8918 165.298 20.9937V14.2676ZM175.198 35.2867C177.097 35.2867 179.223 34.93 181.628 34.2166V30.9809H173.856C173.324 30.9809 172.869 31.1593 172.514 31.516C172.16 31.8727 171.982 32.3313 171.982 32.8663V33.4013C171.982 33.9363 172.16 34.3949 172.514 34.7516C172.869 35.1083 173.324 35.2867 173.856 35.2867H175.198Z" fill="white"/>
<path fill-rule="evenodd" clip-rule="evenodd" d="M36.3564 6.52225C32.3563 2.52226 27.3941 0.509521 21.4192 0.509521C15.4696 0.509521 10.4821 2.52226 6.50725 6.52225C2.5071 10.5477 0.532349 15.5414 0.532349 21.5541C0.532349 27.5159 2.53242 32.5095 6.50725 36.5604C10.5074 40.5859 15.4696 42.5987 21.4192 42.5987C27.3688 42.5987 32.3563 40.5859 36.3564 36.5859C40.3566 32.5604 42.3313 27.5668 42.3313 21.5541C42.3313 15.5414 40.3313 10.5223 36.3564 6.52225Z" fill="#F9A024"/>
<path fill-rule="evenodd" clip-rule="evenodd" d="M21.4185 43.1082C15.3423 43.1082 10.2029 41.0191 6.1268 36.9172C2.05071 32.8153 0 27.6433 0 21.5541C0 15.4395 2.07602 10.2675 6.1268 6.1656C10.2029 2.06369 15.3423 0 21.4185 0C27.4947 0 32.6341 2.08917 36.7102 6.1656C40.7863 10.2675 42.837 15.4395 42.837 21.5541C42.837 27.6688 40.761 32.8407 36.7102 36.9426C32.6341 41.0191 27.4947 43.1082 21.4185 43.1082ZM21.4186 1.01917C15.6462 1.01917 10.7346 3.00643 6.86108 6.87904C2.98752 10.7771 1.03809 15.6943 1.03809 21.5287C1.03809 27.3376 3.01284 32.2548 6.86108 36.1529C10.7346 40.051 15.6209 42.0382 21.4186 42.0382C27.2162 42.0382 32.1025 40.051 35.9761 36.1784C39.8496 32.2803 41.7991 27.3631 41.7991 21.5287C41.7991 15.6943 39.8243 10.7771 35.9761 6.87904C32.1025 2.98095 27.2162 1.01917 21.4186 1.01917Z" fill="#ED017F"/>
<path fill-rule="evenodd" clip-rule="evenodd" d="M10.5827 14.4203C11.3676 13.7579 12.2537 13.4522 13.317 13.4267C14.3803 13.4012 15.469 13.605 16.5323 14.0381C17.5956 14.4458 18.659 15.0827 19.6717 15.7961L20.1527 15.4139C19.5198 14.191 18.5324 13.1974 17.3678 12.433C16.1779 11.6687 14.7348 11.2356 13.2664 11.2356C12.5575 11.2356 11.7473 11.363 11.0131 11.6942C10.2789 12.0254 9.64598 12.535 9.16495 13.1209C8.68392 13.7069 8.38012 14.3948 8.17758 15.0827C8.00036 15.7706 7.89909 16.4585 7.97504 17.1719L8.58266 17.2483C9.13964 16.1018 9.79789 15.0827 10.5827 14.4203Z" fill="#ED017F"/>
<path fill-rule="evenodd" clip-rule="evenodd" d="M24.1531 12.4586C25.0898 11.7962 26.1025 11.3376 27.1405 11.1337C28.2039 10.9044 29.1153 11.0063 30.0267 11.4649C30.9382 11.9235 31.7989 12.7898 32.5838 13.7579L33.1661 13.5541C33.0901 12.8407 32.837 12.2038 32.5078 11.5669C32.1534 10.9554 31.6977 10.3439 31.0901 9.88533C30.4824 9.40125 29.7482 9.07004 28.9634 8.91717C28.1786 8.76431 27.3684 8.81526 26.6848 8.99361C25.2417 9.32482 23.9506 10.0891 22.9632 11.1083C22.0011 12.1274 21.2669 13.3248 20.9125 14.6497L21.4695 14.9044C22.3302 13.9363 23.2164 13.0955 24.1531 12.4586Z" fill="#ED017F"/>
<path fill-rule="evenodd" clip-rule="evenodd" d="M33.773 26.5732C33.3426 27.6433 32.6844 28.6369 31.9502 29.4522C31.5704 29.8853 31.1653 30.2675 30.7349 30.5987C30.3045 30.9554 29.8488 31.2866 29.3931 31.5669C27.4943 32.7134 25.317 33.3758 23.0638 33.7325C20.8612 34.0892 18.5826 34.0637 16.38 33.5541C15.2913 33.2994 14.2027 32.9427 13.1647 32.4331C12.1267 31.949 11.114 31.3121 10.2279 30.5732L9.89874 30.8535C10.5823 31.9236 11.5191 32.7643 12.5317 33.5287C13.5444 34.2675 14.6837 34.8535 15.899 35.2866C18.3041 36.1529 20.9118 36.3057 23.4182 35.9236C25.874 35.5414 28.3804 34.7006 30.4311 33.121C32.4818 31.5669 34.0262 29.2229 34.2034 26.6752L33.773 26.5732Z" fill="#ED017F"/>
<path fill-rule="evenodd" clip-rule="evenodd" d="M20.9876 19.7961L21.7978 27.2865L22.2282 27.2356L21.418 19.7451L20.9876 19.7961Z" fill="#ED017F"/>
</svg>
