<svg width="139" height="24" viewBox="0 0 139 24" fill="none" xmlns="http://www.w3.org/2000/svg">
<path d="M12.048 2.08794H14.448V18.8879H12.048V2.08794ZM2.39998 18.8879H-1.94311e-05V2.08794H2.39998V18.8879ZM12.264 11.3999H2.15998V9.31194H12.264V11.3999ZM19.1405 18.8879V6.16794H21.4445V18.8879H19.1405ZM20.2925 3.71994C19.8445 3.71994 19.4685 3.57594 19.1645 3.28794C18.8765 2.99994 18.7325 2.64794 18.7325 2.23194C18.7325 1.79994 18.8765 1.43994 19.1645 1.15194C19.4685 0.863939 19.8445 0.719939 20.2925 0.719939C20.7405 0.719939 21.1085 0.863939 21.3965 1.15194C21.7005 1.42394 21.8525 1.76794 21.8525 2.18394C21.8525 2.61594 21.7085 2.98394 21.4205 3.28794C21.1325 3.57594 20.7565 3.71994 20.2925 3.71994ZM25.8437 18.8879V6.16794H28.0517V9.62394L27.8357 8.75994C28.1877 7.87994 28.7797 7.20794 29.6117 6.74394C30.4437 6.27994 31.4677 6.04794 32.6837 6.04794V8.27994C32.5877 8.26394 32.4917 8.25594 32.3957 8.25594C32.3157 8.25594 32.2357 8.25594 32.1557 8.25594C30.9237 8.25594 29.9477 8.62394 29.2277 9.35994C28.5077 10.0959 28.1477 11.1599 28.1477 12.5519V18.8879H25.8437ZM41.0702 19.0319C39.7102 19.0319 38.5102 18.7519 37.4702 18.1919C36.4462 17.6319 35.6462 16.8639 35.0702 15.8879C34.5102 14.9119 34.2302 13.7919 34.2302 12.5279C34.2302 11.2639 34.5022 10.1439 35.0462 9.16794C35.6062 8.19194 36.3662 7.43194 37.3262 6.88794C38.3022 6.32794 39.3982 6.04794 40.6142 6.04794C41.8462 6.04794 42.9342 6.31994 43.8782 6.86394C44.8222 7.40794 45.5582 8.17594 46.0862 9.16794C46.6302 10.1439 46.9022 11.2879 46.9022 12.5999C46.9022 12.6959 46.8942 12.8079 46.8782 12.9359C46.8782 13.0639 46.8702 13.1839 46.8542 13.2959H36.0302V11.6399H45.6542L44.7182 12.2159C44.7342 11.3999 44.5662 10.6719 44.2142 10.0319C43.8622 9.39194 43.3742 8.89594 42.7502 8.54394C42.1422 8.17594 41.4302 7.99194 40.6142 7.99194C39.8142 7.99194 39.1022 8.17594 38.4782 8.54394C37.8542 8.89594 37.3662 9.39994 37.0142 10.0559C36.6622 10.6959 36.4862 11.4319 36.4862 12.2639V12.6479C36.4862 13.4959 36.6782 14.2559 37.0622 14.9279C37.4622 15.5839 38.0142 16.0959 38.7182 16.4639C39.4222 16.8319 40.2302 17.0159 41.1422 17.0159C41.8942 17.0159 42.5742 16.8879 43.1822 16.6319C43.8062 16.3759 44.3502 15.9919 44.8142 15.4799L46.0862 16.9679C45.5102 17.6399 44.7902 18.1519 43.9262 18.5039C43.0782 18.8559 42.1262 19.0319 41.0702 19.0319Z" fill="#10B981"/>
<path d="M56.7064 18.8879V2.08794H64.9144C67.0264 2.08794 68.6104 2.48794 69.6664 3.28794C70.7384 4.08794 71.2744 5.14394 71.2744 6.45594C71.2744 7.33594 71.0584 8.10394 70.6264 8.75994C70.1944 9.39994 69.6024 9.89594 68.8504 10.2479C68.0984 10.5999 67.2344 10.7759 66.2584 10.7759L66.7144 9.79194C67.7704 9.79194 68.7064 9.96794 69.5224 10.3199C70.3384 10.6559 70.9704 11.1599 71.4184 11.8319C71.8824 12.5039 72.1144 13.3279 72.1144 14.3039C72.1144 15.7439 71.5464 16.8719 70.4104 17.6879C69.2744 18.4879 67.6024 18.8879 65.3944 18.8879H56.7064ZM60.5704 15.9599H65.1064C66.1144 15.9599 66.8744 15.7999 67.3864 15.4799C67.9144 15.1439 68.1784 14.6159 68.1784 13.8959C68.1784 13.1919 67.9144 12.6719 67.3864 12.3359C66.8744 11.9839 66.1144 11.8079 65.1064 11.8079H60.2824V8.97594H64.4344C65.3784 8.97594 66.0984 8.81594 66.5944 8.49594C67.1064 8.15994 67.3624 7.65594 67.3624 6.98394C67.3624 6.32794 67.1064 5.83994 66.5944 5.51994C66.0984 5.18394 65.3784 5.01594 64.4344 5.01594H60.5704V15.9599ZM74.7939 18.8879V5.97594H78.3699V9.62394L77.8659 8.56794C78.2499 7.65594 78.8659 6.96794 79.7139 6.50394C80.5619 6.02394 81.5939 5.78394 82.8099 5.78394V9.23994C82.6499 9.22394 82.5059 9.21594 82.3779 9.21594C82.2499 9.19994 82.1139 9.19194 81.9699 9.19194C80.9459 9.19194 80.1139 9.48794 79.4739 10.0799C78.8499 10.6559 78.5379 11.5599 78.5379 12.7919V18.8879H74.7939ZM85.0595 18.8879V5.97594H88.8035V18.8879H85.0595ZM86.9315 4.17594C86.2435 4.17594 85.6835 3.97594 85.2515 3.57594C84.8195 3.17594 84.6035 2.67994 84.6035 2.08794C84.6035 1.49594 84.8195 0.999938 85.2515 0.599939C85.6835 0.199938 86.2435 -6.19888e-05 86.9315 -6.19888e-05C87.6195 -6.19888e-05 88.1795 0.191938 88.6115 0.575939C89.0435 0.943939 89.2595 1.42394 89.2595 2.01594C89.2595 2.63994 89.0435 3.15994 88.6115 3.57594C88.1955 3.97594 87.6355 4.17594 86.9315 4.17594ZM97.8223 19.0799C96.6063 19.0799 95.5103 18.8079 94.5343 18.2639C93.5583 17.7039 92.7823 16.9279 92.2063 15.9359C91.6463 14.9439 91.3663 13.7759 91.3663 12.4319C91.3663 11.0719 91.6463 9.89594 92.2063 8.90394C92.7823 7.91194 93.5583 7.14394 94.5343 6.59994C95.5103 6.05594 96.6063 5.78394 97.8223 5.78394C98.9103 5.78394 99.8623 6.02394 100.678 6.50394C101.494 6.98394 102.126 7.71194 102.574 8.68794C103.022 9.66394 103.246 10.9119 103.246 12.4319C103.246 13.9359 103.03 15.1839 102.598 16.1759C102.166 17.1519 101.542 17.8799 100.726 18.3599C99.9263 18.8399 98.9583 19.0799 97.8223 19.0799ZM98.4703 16.0079C99.0783 16.0079 99.6303 15.8639 100.126 15.5759C100.622 15.2879 101.014 14.8799 101.302 14.3519C101.606 13.8079 101.758 13.1679 101.758 12.4319C101.758 11.6799 101.606 11.0399 101.302 10.5119C101.014 9.98394 100.622 9.57594 100.126 9.28794C99.6303 8.99994 99.0783 8.85594 98.4703 8.85594C97.8463 8.85594 97.2863 8.99994 96.7903 9.28794C96.2943 9.57594 95.8943 9.98394 95.5903 10.5119C95.3023 11.0399 95.1583 11.6799 95.1583 12.4319C95.1583 13.1679 95.3023 13.8079 95.5903 14.3519C95.8943 14.8799 96.2943 15.2879 96.7903 15.5759C97.2863 15.8639 97.8463 16.0079 98.4703 16.0079ZM101.854 18.8879V16.2479L101.926 12.4079L101.686 8.59194V1.07994H105.43V18.8879H101.854ZM114.967 23.7359C113.751 23.7359 112.575 23.5839 111.439 23.2799C110.319 22.9919 109.383 22.5519 108.631 21.9599L110.119 19.2719C110.663 19.7199 111.351 20.0719 112.183 20.3279C113.031 20.5999 113.863 20.7359 114.679 20.7359C116.007 20.7359 116.967 20.4399 117.559 19.8479C118.167 19.2559 118.471 18.3759 118.471 17.2079V15.2639L118.711 12.0239L118.663 8.75994V5.97594H122.215V16.7279C122.215 19.1279 121.591 20.8959 120.343 22.0319C119.095 23.1679 117.303 23.7359 114.967 23.7359ZM114.391 18.2639C113.191 18.2639 112.103 18.0079 111.127 17.4959C110.167 16.9679 109.391 16.2399 108.799 15.3119C108.223 14.3679 107.935 13.2719 107.935 12.0239C107.935 10.7599 108.223 9.66394 108.799 8.73594C109.391 7.79194 110.167 7.06394 111.127 6.55194C112.103 6.03994 113.191 5.78394 114.391 5.78394C115.479 5.78394 116.439 6.00794 117.271 6.45594C118.103 6.88794 118.751 7.56794 119.215 8.49594C119.679 9.40794 119.911 10.5839 119.911 12.0239C119.911 13.4479 119.679 14.6239 119.215 15.5519C118.751 16.4639 118.103 17.1439 117.271 17.5919C116.439 18.0399 115.479 18.2639 114.391 18.2639ZM115.135 15.1919C115.791 15.1919 116.375 15.0639 116.887 14.8079C117.399 14.5359 117.799 14.1599 118.087 13.6799C118.375 13.1999 118.519 12.6479 118.519 12.0239C118.519 11.3839 118.375 10.8319 118.087 10.3679C117.799 9.88794 117.399 9.51994 116.887 9.26394C116.375 8.99194 115.791 8.85594 115.135 8.85594C114.479 8.85594 113.895 8.99194 113.383 9.26394C112.871 9.51994 112.463 9.88794 112.159 10.3679C111.871 10.8319 111.727 11.3839 111.727 12.0239C111.727 12.6479 111.871 13.1999 112.159 13.6799C112.463 14.1599 112.871 14.5359 113.383 14.8079C113.895 15.0639 114.479 15.1919 115.135 15.1919ZM132.108 19.0799C130.636 19.0799 129.34 18.7919 128.22 18.2159C127.116 17.6399 126.26 16.8559 125.652 15.8639C125.044 14.8559 124.74 13.7119 124.74 12.4319C124.74 11.1359 125.036 9.99194 125.628 8.99994C126.236 7.99194 127.06 7.20794 128.1 6.64794C129.14 6.07194 130.316 5.78394 131.628 5.78394C132.892 5.78394 134.028 6.05594 135.036 6.59994C136.06 7.12794 136.868 7.89594 137.46 8.90394C138.052 9.89594 138.348 11.0879 138.348 12.4799C138.348 12.6239 138.34 12.7919 138.324 12.9839C138.308 13.1599 138.292 13.3279 138.276 13.4879H127.788V11.3039H136.308L134.868 11.9519C134.868 11.2799 134.732 10.6959 134.46 10.1999C134.188 9.70394 133.812 9.31994 133.332 9.04794C132.852 8.75994 132.292 8.61594 131.652 8.61594C131.012 8.61594 130.444 8.75994 129.948 9.04794C129.468 9.31994 129.092 9.71194 128.82 10.2239C128.548 10.7199 128.412 11.3119 128.412 11.9999V12.5759C128.412 13.2799 128.564 13.9039 128.868 14.4479C129.188 14.9759 129.628 15.3839 130.188 15.6719C130.764 15.9439 131.436 16.0799 132.204 16.0799C132.892 16.0799 133.492 15.9759 134.004 15.7679C134.532 15.5599 135.012 15.2479 135.444 14.8319L137.436 16.9919C136.844 17.6639 136.1 18.1839 135.204 18.5519C134.308 18.9039 133.276 19.0799 132.108 19.0799Z" fill="#1E5ED6"/>
</svg>
